<svg xmlns="http://www.w3.org/2000/svg"  viewBox="0 0 48 48" width="48px" height="48px"><path d="M 23.996094 4 C 18.491011 4 13.996094 8.494921 13.996094 14 C 13.996094 19.505079 18.491011 24 23.996094 24 C 29.501177 24 33.996094 19.505079 33.996094 14 C 33.996094 8.494921 29.501177 4 23.996094 4 z M 40.855469 25.613281 C 39.56923 25.613281 38.281276 26.099583 37.308594 27.072266 C 35.067227 29.312633 31.790341 32.590518 29.550781 34.830078 C 27.604208 36.775234 27.604834 39.975928 29.550781 41.921875 L 29.556641 41.927734 C 31.501606 43.8727 34.701004 43.871901 36.646484 41.927734 C 38.887873 39.687346 42.165639 36.409533 44.40625 34.169922 C 46.351615 32.224557 46.350988 29.024281 44.40625 27.078125 C 44.40615 27.078025 44.395131 27.068959 44.394531 27.068359 C 43.422465 26.099125 42.139426 25.613281 40.855469 25.613281 z M 11.976562 28 C 9.7835625 28 7.9960938 29.784516 7.9960938 31.978516 L 7.9960938 33.5 C 7.9960938 36.812 9.8826875 39.6755 13.304688 41.5625 C 16.152687 43.1345 19.948094 44 23.996094 44 C 25.184094 44 26.384359 43.911906 27.568359 43.753906 C 26.891359 42.839906 26.34025 41.737359 26.03125 40.318359 C 25.39025 37.374359 26.033234 35.047297 28.115234 32.779297 L 32.880859 28 L 11.976562 28 z M 35.128906 33.496094 L 37.984375 36.351562 C 36.758281 37.577871 35.525521 38.808908 34.527344 39.806641 A 1.50015 1.50015 0 0 0 34.525391 39.806641 C 33.726755 40.605276 32.47637 40.605276 31.677734 39.806641 L 31.671875 39.800781 C 30.871822 39.000728 30.872448 37.750016 31.671875 36.951172 C 32.669851 35.953196 33.902672 34.722459 35.128906 33.496094 z"/></svg>