<svg xmlns="http://www.w3.org/2000/svg"  viewBox="0 0 80 80" width="40px" height="40px"><path fill="#99c99e" d="M57.981,71.5c-0.534,0-1.077-0.067-1.612-0.2c-2.069-0.512-3.798-2.179-4.404-4.247 c-0.349-1.192-0.36-2.372-0.037-3.506c0.615-2.15,0.364-4.66-0.705-7.068L46.66,46.214l4.045-1.798 c0.818,1.875,3.908,8.933,5.133,11.539c1.011,2.151,3.055,2.931,4.407,3.446c0.389,0.148,0.724,0.276,0.93,0.398 c1.907,1.127,3.092,3.202,3.092,5.414c0,1.679-0.653,3.258-1.841,4.445C61.239,70.846,59.661,71.5,57.981,71.5L57.981,71.5z"/><path fill="#5e9c76" d="M50.448,45.077c1.037,2.372,3.794,8.659,4.936,11.09c1.097,2.334,3.341,3.19,4.682,3.701 c0.352,0.134,0.684,0.261,0.854,0.361c1.756,1.038,2.846,2.948,2.846,4.985c0,3.19-2.595,5.786-5.786,5.786 c-0.494,0-0.996-0.062-1.492-0.185c-1.9-0.47-3.487-2.002-4.043-3.903c-0.322-1.099-0.334-2.185-0.036-3.229 c0.646-2.263,0.387-4.894-0.73-7.408l-4.359-9.808L50.448,45.077 M50.962,43.755L46,45.96l4.765,10.722 c0.939,2.113,1.317,4.504,0.682,6.728c-0.33,1.157-0.355,2.442,0.038,3.784c0.653,2.229,2.508,4.034,4.763,4.592 C56.837,71.931,57.417,72,57.981,72c3.748,0,6.786-3.038,6.786-6.786c0-2.489-1.34-4.664-3.337-5.845 c-1.01-0.597-3.922-1.036-5.14-3.627C54.866,52.712,50.962,43.755,50.962,43.755L50.962,43.755z"/><path fill="#99c99e" d="M46.298,29.226l2.654-3.318c1.578-1.974,2.298-4.236,2.024-6.372 c-0.119-0.935-0.013-1.887,0.315-2.83c0.691-1.987,2.348-3.523,4.322-4.009c0.531-0.13,1.069-0.196,1.6-0.196 c3.383,0,6.201,2.749,6.284,6.129c0.044,1.757-0.916,3.606-2.567,4.949c-0.903,0.735-1.778,1.188-2.674,1.383 c-2.275,0.494-4.135,1.576-5.377,3.129l-3.123,3.903L46.298,29.226z"/><path fill="#5e9c76" d="M57.215,13c3.113,0,5.708,2.53,5.784,5.641c0.039,1.603-0.852,3.304-2.383,4.55 c-0.842,0.684-1.648,1.104-2.465,1.281c-2.39,0.52-4.347,1.664-5.661,3.306l-2.81,3.513L47,29.147l2.342-2.928 c1.664-2.08,2.421-4.477,2.131-6.748c-0.11-0.857-0.012-1.732,0.291-2.602c0.637-1.829,2.158-3.242,3.97-3.687 C56.227,13.061,56.725,13,57.215,13 M57.215,12c-0.56,0-1.135,0.068-1.719,0.211c-2.163,0.531-3.944,2.226-4.676,4.33 c-0.372,1.07-0.461,2.098-0.338,3.057c0.275,2.153-0.564,4.302-1.919,5.996l-2.967,3.709l4.241,3.393l3.435-4.294 c1.27-1.587,3.108-2.522,5.093-2.954c0.895-0.195,1.849-0.642,2.883-1.483c1.623-1.32,2.803-3.259,2.752-5.35 C63.908,14.947,60.905,12,57.215,12L57.215,12z"/><path fill="#99c99e" d="M15.653,38.589c-0.454-0.102-0.911-0.152-1.358-0.152c-0.901,0-1.759,0.214-2.479,0.617 c-0.52,0.292-1.083,0.439-1.677,0.439c-1.929,0-3.497-1.568-3.497-3.496c0-1.929,1.568-3.497,3.497-3.497 c1.029,0,2,0.454,2.663,1.247c0.765,0.912,1.941,1.567,3.403,1.894l11.34,2.53l-0.651,2.928L15.653,38.589z"/><path fill="#5e9c76" d="M10.14,33c0.88,0,1.712,0.389,2.28,1.068c0.835,0.997,2.107,1.71,3.676,2.06L26.95,38.55 l-0.434,1.951l-10.754-2.4c-0.49-0.109-0.983-0.165-1.467-0.165c-0.987,0-1.929,0.236-2.724,0.682 c-0.442,0.249-0.924,0.375-1.431,0.375c-1.652,0-2.997-1.344-2.997-2.997C7.143,34.344,8.487,33,10.14,33 M10.14,32 c-2.207,0-3.997,1.789-3.997,3.997c0,2.207,1.789,3.997,3.997,3.997c0.7,0,1.353-0.184,1.921-0.503 c0.683-0.384,1.455-0.554,2.234-0.554c0.418,0,0.839,0.049,1.249,0.141l11.73,2.618l0.869-3.903l-11.829-2.64 c-1.186-0.265-2.347-0.794-3.128-1.726C12.457,32.555,11.366,32,10.14,32L10.14,32z"/><path fill="#99c99e" d="M24.214,69.5c-1.969,0-3.571-1.603-3.571-3.571c0-1.58,1.058-2.99,2.572-3.43 c1.182-0.344,2.073-1.153,2.514-1.797c1.404-2.05,5.122-7.314,6.186-8.818l2.514,1.763c-1.005,1.413-4.345,6.12-5.997,8.552 c-0.646,0.952-0.646,2.859-0.645,3.674C27.786,67.897,26.184,69.5,24.214,69.5z"/><path fill="#5e9c76" d="M32.034,52.579l1.695,1.188c-1.25,1.76-4.192,5.914-5.711,8.151 c-0.646,0.951-0.732,2.534-0.732,3.956v0.055c0,1.694-1.378,3.071-3.071,3.071s-3.071-1.378-3.071-3.071 c0-1.358,0.909-2.571,2.212-2.95c1.308-0.38,2.297-1.279,2.786-1.993C27.437,59.094,30.706,54.46,32.034,52.579 M31.793,51.188 c0,0-4.817,6.809-6.477,9.232c-0.423,0.617-1.245,1.309-2.24,1.598c-1.694,0.492-2.933,2.057-2.933,3.91 c0,2.249,1.823,4.071,4.071,4.071s4.071-1.823,4.071-4.071c0-0.699-0.016-2.603,0.559-3.449c1.968-2.897,6.283-8.954,6.283-8.954 L31.793,51.188L31.793,51.188z"/><path fill="#bae0bd" d="M21.277,26.371c-1.443-1.855-3.318-3.054-5.28-3.375c-0.596-0.098-1.195-0.295-1.782-0.586 c-1.872-0.932-3.213-2.718-3.501-4.662c-0.275-1.862,0.241-3.661,1.453-5.066c1.196-1.387,2.932-2.182,4.761-2.182 c0.495,0,0.998,0.058,1.495,0.172c2.056,0.471,3.812,2.102,4.475,4.153c0.301,0.932,0.388,1.872,0.258,2.796 c-0.304,2.158,0.396,4.461,1.969,6.482l10.888,13.998l-3.494,2.721L21.277,26.371z"/><path fill="#5e9c76" d="M16.929,11c0.457,0,0.922,0.053,1.382,0.159c1.888,0.433,3.501,1.932,4.111,3.82 c0.278,0.861,0.358,1.726,0.239,2.572c-0.323,2.293,0.411,4.729,2.068,6.86L35.31,38.015l-2.705,2.106L21.672,26.064 c-1.521-1.955-3.507-3.22-5.594-3.562c-0.548-0.09-1.1-0.272-1.64-0.54c-1.728-0.859-2.965-2.502-3.229-4.287 c-0.254-1.716,0.221-3.374,1.337-4.667C13.647,11.732,15.245,11,16.929,11 M16.929,10c-4.088,0-7.331,3.614-6.709,7.821 c0.32,2.168,1.81,4.06,3.773,5.036c0.66,0.328,1.302,0.53,1.924,0.632c1.998,0.327,3.723,1.59,4.967,3.189L32.43,41.524 l4.283-3.335L25.518,23.797c-1.351-1.737-2.175-3.927-1.868-6.106c0.134-0.949,0.063-1.965-0.278-3.019 c-0.711-2.202-2.583-3.97-4.839-4.488C17.99,10.059,17.452,10,16.929,10L16.929,10z"/><path fill="#bae0bd" d="M11.169,59.5c-1.374,0-2.658-0.613-3.522-1.684c-0.864-1.069-1.19-2.474-0.895-3.852 c0.343-1.599,1.627-2.947,3.193-3.356c0.407-0.105,0.818-0.159,1.224-0.159c0.85,0,1.677,0.237,2.392,0.687 c0.963,0.605,2.041,0.925,3.117,0.925c0.56,0,1.111-0.087,1.64-0.258l9.774-3.173l0.854,2.632l-9.949,3.229 c-1.566,0.509-2.988,1.592-4.227,3.221C13.907,58.848,12.595,59.5,11.169,59.5z"/><path fill="#5e9c76" d="M27.77,49.26l0.546,1.681l-9.474,3.075c-1.666,0.541-3.169,1.682-4.47,3.393 C13.604,58.42,12.436,59,11.169,59c-1.222,0-2.364-0.546-3.133-1.498c-0.781-0.966-1.063-2.185-0.795-3.432 c0.305-1.419,1.442-2.616,2.831-2.978c0.366-0.095,0.735-0.144,1.097-0.144c0.755,0,1.491,0.211,2.127,0.611 c1.042,0.655,2.212,1.001,3.382,1.001c0.612,0,1.216-0.095,1.794-0.283L27.77,49.26 M28.413,48l-10.25,3.327 c-0.488,0.158-0.988,0.234-1.486,0.234c-0.995,0-1.981-0.302-2.85-0.848c-0.77-0.484-1.681-0.764-2.659-0.764 c-0.439,0-0.891,0.056-1.349,0.176c-1.764,0.46-3.174,1.954-3.557,3.736C5.562,57.122,8.029,60,11.169,60 c1.633,0,3.083-0.779,4-1.986c1.041-1.37,2.346-2.516,3.982-3.047l10.425-3.383L28.413,48L28.413,48z"/><path fill="#bae0bd" d="M50.215,36.402c0.69-0.18,2.076-0.533,3.522-0.901c2.797-0.713,6.345-1.616,8.176-2.106 c1.136-0.305,1.958-0.662,2.998-2.778c0.642-1.306,1.854-2.116,3.166-2.116c1.888,0,3.423,1.535,3.423,3.423 s-1.535,3.423-3.423,3.423c-0.232,0-0.464-0.023-0.688-0.069c-1.391-0.285-2.456-0.411-3.455-0.411 c-0.844,0-1.612,0.092-2.35,0.282l-10.964,2.826L50.215,36.402z"/><path fill="#5e9c76" d="M68.077,29C69.689,29,71,30.311,71,31.923s-1.311,2.923-2.923,2.923 c-0.198,0-0.397-0.02-0.589-0.059c-1.424-0.291-2.52-0.421-3.555-0.421c-0.886,0-1.695,0.098-2.474,0.298l-10.48,2.702 l-0.156-0.605c0.752-0.194,1.878-0.48,3.043-0.777c2.826-0.72,6.342-1.615,8.176-2.107c1.23-0.33,2.188-0.741,3.318-3.04 C65.926,29.687,66.941,29,68.077,29 M68.077,28c-1.625,0-2.94,1.024-3.615,2.396c-0.985,2.004-1.685,2.248-2.68,2.515 c-3.316,0.889-12.275,3.135-12.176,3.139l0.654,2.533l11.448-2.952c0.735-0.19,1.478-0.267,2.224-0.267 c1.117,0,2.24,0.173,3.354,0.401c0.255,0.052,0.519,0.08,0.789,0.08c2.167,0,3.923-1.756,3.923-3.923S70.244,28,68.077,28 L68.077,28z"/><g><path fill="#d8f0da" d="M39.001,77.5c-0.599,0-1.205-0.081-1.804-0.242c-2.124-0.568-3.869-2.304-4.446-4.421 c-0.79-2.896,0.312-5.771,2.807-7.319c2.061-1.279,3.242-3.242,3.242-5.385v-0.35c0-0.771-0.293-1.388-0.507-1.838 c-0.08-0.17-0.19-0.401-0.193-0.479c0-0.74,1.054-1.366,2.301-1.366s2.3,0.626,2.3,1.367c-0.003,0.103-0.134,0.426-0.229,0.661 C42.261,58.643,42,59.284,42,59.897v1.389c0,2.054,0.716,4.046,2.016,5.611C44.986,68.066,45.5,69.485,45.5,71 c0,1.736-0.676,3.368-1.903,4.596S40.736,77.5,39.001,77.5L39.001,77.5z"/><path fill="#5e9c76" d="M40.4,56.6c1.048,0,1.755,0.49,1.798,0.834c-0.028,0.105-0.121,0.334-0.19,0.505 c-0.226,0.556-0.507,1.247-0.507,1.958v1.389c0,2.17,0.757,4.276,2.131,5.931C44.527,68.295,45,69.604,45,71c0,3.308-2.692,6-6,6 c-0.554,0-1.117-0.076-1.673-0.224c-1.956-0.524-3.563-2.121-4.093-4.07c-0.73-2.679,0.286-5.334,2.588-6.764 c2.172-1.349,3.434-3.417,3.478-5.688H39.3v-0.121v-0.35c0-0.882-0.334-1.586-0.555-2.052c-0.049-0.102-0.112-0.236-0.141-0.312 C38.666,57.075,39.367,56.6,40.4,56.6 M40.4,55.6c-1.546,0-2.8,0.836-2.8,1.867c0,0.464,0.7,1.23,0.7,2.316c0,0.166,0,0.277,0,0.35 v0.121c0,0,0-0.03,0-0.121c0,2.084-1.236,3.86-3.006,4.96c-2.481,1.541-3.923,4.58-3.025,7.876c0.625,2.293,2.504,4.158,4.8,4.773 C37.724,77.917,38.372,78,39,78c3.866,0,7-3.134,7-7c0-1.686-0.602-3.221-1.6-4.422c-1.234-1.487-1.9-3.36-1.9-5.292 c0,0,0-0.341,0-1.389c0-0.888,0.7-1.967,0.7-2.431C43.2,56.436,41.946,55.6,40.4,55.6L40.4,55.6z"/></g><g><path fill="#d8f0da" d="M68.929,55.5c-1.987,0-3.738-1.341-4.26-3.262c-0.243-0.898-0.896-1.638-1.748-1.976 c-0.001,0-4.18-1.649-5.565-2.218c-0.429-0.176-0.919-0.198-1.298-0.198l-0.576,0.007c-0.236,0-0.309-0.017-0.328-0.023 c-0.326-0.143-0.44-0.534-0.48-0.754c-0.079-0.448,0.002-0.996,0.223-1.502c0.399-0.916,1.094-1.396,1.573-1.396 c0.093,0,0.181,0.018,0.26,0.052c0.034,0.023,0.132,0.152,0.203,0.247c0.234,0.31,0.555,0.733,1.154,0.958 c1.405,0.528,5.614,2.237,5.656,2.254c0.338,0.135,0.692,0.203,1.056,0.203c0.604,0,1.206-0.187,1.744-0.537 c0.714-0.466,1.539-0.713,2.387-0.713c0.337,0,0.68,0.039,1.019,0.115c1.657,0.373,2.991,1.741,3.32,3.405 c0.264,1.334-0.07,2.689-0.915,3.718C71.507,54.91,70.259,55.5,68.929,55.5z"/><path fill="#5e9c76" d="M56.458,44.679c0.024,0.031,0.049,0.066,0.075,0.101c0.24,0.317,0.642,0.849,1.377,1.124 c1.399,0.525,5.602,2.232,5.65,2.251c0.394,0.157,0.81,0.237,1.237,0.237c0.701,0,1.398-0.214,2.018-0.618 c0.632-0.413,1.362-0.631,2.113-0.631c0.3,0,0.606,0.035,0.91,0.103c1.444,0.325,2.652,1.564,2.938,3.014 c0.238,1.204-0.05,2.378-0.811,3.304C71.216,54.476,70.109,55,68.929,55c-1.761,0-3.315-1.19-3.777-2.893 c-0.285-1.049-1.049-1.912-2.048-2.31c-0.042-0.016-4.193-1.655-5.558-2.215c-0.51-0.209-1.063-0.236-1.488-0.236 c-0.112,0-0.222,0.002-0.328,0.004l-0.246,0.003c-0.018,0-0.036,0-0.054,0c-0.038,0-0.074,0-0.107-0.003 c-0.162-0.14-0.324-0.763,0.031-1.577C55.676,45.036,56.198,44.688,56.458,44.679 M56.468,43.679c-0.746,0-1.582,0.668-2.031,1.695 c-0.545,1.247-0.312,2.553,0.519,2.916c0.12,0.052,0.306,0.064,0.527,0.064c0.174,0,0.37-0.007,0.574-0.007 c0.374,0,0.774,0.024,1.108,0.161c1.387,0.569,5.571,2.22,5.571,2.22c0.717,0.286,1.248,0.896,1.45,1.642 C64.754,54.46,66.657,56,68.929,56c3.051,0,5.454-2.771,4.829-5.934c-0.365-1.846-1.864-3.383-3.7-3.796 c-0.384-0.086-0.762-0.127-1.129-0.127c-0.984,0-1.894,0.293-2.66,0.794c-0.447,0.292-0.958,0.456-1.471,0.456 c-0.292,0-0.585-0.053-0.867-0.165c0,0-4.241-1.723-5.669-2.259c-0.77-0.289-0.971-1.037-1.333-1.195 C56.783,43.709,56.628,43.679,56.468,43.679L56.468,43.679z"/></g><g><path fill="#d8f0da" d="M39,26.7c-2.195,0-4.517-1.183-4.517-2.3c0-0.605,0.395-1.181,1.112-1.621 c1.072-0.656,1.688-1.666,1.688-2.771V19.46c0-1.804-0.155-3.837-2.006-5.132c-2.344-1.64-3.317-4.517-2.479-7.331 c0.603-2.023,2.318-3.691,4.372-4.249C37.778,2.583,38.393,2.5,38.999,2.5C42.584,2.5,45.5,5.416,45.5,9 c0,2.115-1.035,4.105-2.77,5.322c-1.552,1.09-2.306,2.743-2.306,5.056v0.631c0,1.104,0.615,2.114,1.688,2.771 c0.717,0.439,1.111,1.015,1.111,1.62C43.225,25.562,41.132,26.7,39,26.7z"/><path fill="#5e9c76" d="M39,3c3.308,0,6,2.692,6,6c0,1.953-0.956,3.79-2.557,4.913c-1.671,1.173-2.518,3.012-2.518,5.465 v0.631c0,1.282,0.702,2.447,1.927,3.197c0.555,0.34,0.873,0.775,0.873,1.194c0,0.711-1.669,1.8-3.725,1.8 c-2.071,0-4.017-1.123-4.017-1.8c0-0.419,0.318-0.854,0.873-1.194c1.225-0.75,1.927-1.916,1.927-3.197V19.46 c0-2.072-0.269-4.177-2.219-5.541c-2.165-1.515-3.063-4.176-2.287-6.779c0.554-1.861,2.134-3.395,4.025-3.909 C37.867,3.078,38.438,3,39,3 M39,2c-0.637,0-1.294,0.085-1.96,0.266c-2.225,0.604-4.063,2.378-4.721,4.588 c-0.959,3.219,0.334,6.248,2.672,7.884c1.572,1.1,1.792,2.803,1.792,4.721v0.549c0,0.993-0.603,1.826-1.449,2.345 c-0.83,0.508-1.351,1.235-1.351,2.046c0,1.546,2.697,2.8,5.017,2.8c2.32,0,4.725-1.254,4.725-2.8c0-0.812-0.521-1.538-1.351-2.046 c-0.847-0.519-1.449-1.352-1.449-2.345v-0.631c0-1.9,0.538-3.554,2.093-4.646C44.821,13.466,46,11.371,46,9C46,5.134,42.866,2,39,2 L39,2z"/></g><g><path fill="#bae0bd" d="M39,61.5c-11.304,0-20.5-9.196-20.5-20.5S27.696,20.5,39,20.5S59.5,29.696,59.5,41 S50.304,61.5,39,61.5z"/><path fill="#5e9c76" d="M39,21c11.028,0,20,8.972,20,20s-8.972,20-20,20s-20-8.972-20-20S27.972,21,39,21 M39,20 c-11.598,0-21,9.402-21,21s9.402,21,21,21s21-9.402,21-21S50.598,20,39,20L39,20z"/></g><g><path fill="#ffeea3" d="M35 30.5A4.5 4.5 0 1 0 35 39.5A4.5 4.5 0 1 0 35 30.5Z"/><path fill="#ba9b48" d="M35,31c2.206,0,4,1.794,4,4s-1.794,4-4,4s-4-1.794-4-4S32.794,31,35,31 M35,30c-2.75,0-5,2.249-5,5 s2.248,5,5,5c2.75,0,5-2.249,5-5S37.75,30,35,30L35,30z"/></g><g><path fill="#ffeea3" d="M33,51.5c-1.519,0-2.5-0.981-2.5-2.5s0.981-2.5,2.5-2.5s2.5,0.981,2.5,2.5S34.519,51.5,33,51.5z"/><path fill="#ba9b48" d="M33,47c1.252,0,2,0.748,2,2s-0.748,2-2,2s-2-0.748-2-2S31.748,47,33,47 M33,46c-1.801,0-3,1.2-3,3 s1.201,3,3,3s3-1.2,3-3S34.799,46,33,46L33,46z"/></g><g><path fill="#ffeea3" d="M46.001,51.5c-1.865,0-3.501-1.636-3.501-3.5s1.636-3.5,3.501-3.5c1.864,0,3.499,1.636,3.499,3.5 S47.865,51.5,46.001,51.5z"/><path fill="#ba9b48" d="M46.001,45C47.571,45,49,46.43,49,48s-1.429,3-2.999,3C44.43,51,43,49.57,43,48S44.43,45,46.001,45 M46.001,44C43.866,44,42,45.865,42,48s1.867,4,4.001,4C48.133,52,50,50.135,50,48S48.133,44,46.001,44L46.001,44z"/></g></svg>