<svg xmlns="http://www.w3.org/2000/svg" xmlns:xlink="http://www.w3.org/1999/xlink" viewBox="0,0,256,256" width="50px" height="50px"><g fill="#ff9f0f" fill-rule="nonzero" stroke="none" stroke-width="1" stroke-linecap="butt" stroke-linejoin="miter" stroke-miterlimit="10" stroke-dasharray="" stroke-dashoffset="0" font-family="none" font-weight="none" font-size="none" text-anchor="none" style="mix-blend-mode: normal"><g transform="scale(5.12,5.12)"><path d="M25,0c-2.54687,0 -4.6875,2.14063 -4.6875,4.6875c0,0.375 0.10938,0.85938 0.25,1.34375c0.35156,0.67969 0.89844,1.41406 1.46875,2.125c1.51563,1.89063 3.40234,4.21875 1.4375,6.65625c-0.19922,0.24609 -0.48828,0.375 -0.78125,0.375c-0.21875,0 -0.44141,-0.07031 -0.625,-0.21875c-0.42969,-0.34766 -0.47266,-0.97656 -0.125,-1.40625c0.33984,-0.42187 0.4375,-0.83984 0.34375,-1.3125c-1.44922,0.32813 -2.84375,0.89453 -4.125,1.6875c0.01563,0.12891 0.03125,0.26953 0.0625,0.375c0.08594,0.29297 0.19922,0.39844 0.21875,0.40625c0.01172,0.00391 0.11328,0 0.28125,-0.09375c0.48438,-0.26953 1.07813,-0.07812 1.34375,0.40625c0.26563,0.48438 0.10938,1.07813 -0.375,1.34375c-0.41016,0.22656 -0.82031,0.34375 -1.21875,0.34375c-0.59375,0 -1.17578,-0.23828 -1.59375,-0.71875c-0.89062,-1.01953 -0.94141,-2.86719 -0.28125,-4.4375c0.00781,-0.02344 0,-0.03516 0,-0.0625l0.03125,-0.15625c0.08984,-0.34375 0.1875,-0.69531 0.1875,-1.15625c0,-2.54687 -2.17187,-4.6875 -4.71875,-4.6875c-2.54687,0 -4.6875,2.14063 -4.6875,4.6875c0,1.93359 1.17578,3.64063 2.9375,4.34375c0.34375,0.10156 0.71094,0.19531 1.09375,0.28125c1.88281,0.41797 4.48438,1 5.0625,4.21875c0.01172,0.05859 0,0.22266 0,0.28125c0,0.55078 -0.44922,1 -1,1c-0.55078,0 -1,-0.44922 -1,-1c-0.08984,-0.50391 -0.26172,-0.87891 -0.5,-1.1875c-1.30078,2.06641 -2,4.40625 -2,6.875c0,0.85938 0.11719,1.71484 0.21875,2.53125h0.03125c0.02734,0.25 -0.05859,0.41016 -0.25,0.5625c-0.36328,0.30078 -0.9375,0.36719 -1.15625,0.3125c-0.76172,-0.48437 -1.51172,-0.71875 -2.4375,-0.71875c-2.54687,0 -4.71875,2.17188 -4.71875,4.71875c0,2.54688 2.17188,4.6875 4.71875,4.6875c1.45313,0 2.86719,-0.6875 3.8125,-1.90625c0.65234,-0.92187 1.53906,-1.58203 2.25,-1.65625c0.33203,-0.03516 0.58984,0.07813 0.84375,0.3125c0.08203,0.07813 0.18359,0.11328 0.28125,0.15625c2.07813,2.08594 4.67969,3.41016 7.46875,3.84375c0.24219,-0.625 0.13281,-1.33203 -0.5625,-2.25c-0.33203,-0.44141 -0.25391,-1.07031 0.1875,-1.40625c0.44141,-0.33203 1.07422,-0.21875 1.40625,0.21875c2.57813,3.40234 0.07422,5.63672 -1.3125,6.71875c-0.05859,0.0625 -0.12891,0.14063 -0.1875,0.1875c-1.41797,0.83594 -2.28125,2.34766 -2.28125,4c0,2.54688 2.14063,4.6875 4.6875,4.6875c2.54688,0 4.6875,-2.14062 4.6875,-4.6875c0,-0.19531 -0.01953,-0.41797 -0.03125,-0.625c-0.19922,-1.37109 -0.98437,-3.17187 -1.6875,-4.78125c-1.20312,-2.73828 -2.0625,-4.72656 -0.8125,-5.78125c0.42188,-0.35547 1.05078,-0.29687 1.40625,0.125c0.32422,0.38672 0.32422,0.94531 0,1.3125c-0.02344,0.31641 0.19922,1.02344 0.5,1.78125c2.83594,-0.97266 5.23828,-2.83594 6.875,-5.34375c-0.14844,-0.16406 -0.28516,-0.32422 -0.4375,-0.40625c-0.19531,-0.10547 -0.35937,-0.13281 -0.5625,-0.0625c-0.52344,0.17969 -1.10156,-0.07422 -1.28125,-0.59375c-0.17969,-0.52344 0.10547,-1.10156 0.625,-1.28125c0.73047,-0.25391 1.46875,-0.1875 2.15625,0.1875c1.91406,1.03516 2.67188,4.1875 3.15625,5.15625c0.48438,0.96875 2.30859,2.1875 3.90625,2.1875c2.54688,0 4.6875,-2.14062 4.6875,-4.6875c0,-2.54687 -2.14062,-4.6875 -4.6875,-4.6875c-0.61719,0 -1.34375,0.05078 -1.78125,0.34375c-0.4375,0.29297 -2.28125,1.15625 -3.4375,1.15625c-1.13281,0 -2.21484,-0.32812 -3.03125,-0.875c-0.46094,-0.30859 -0.58984,-0.94531 -0.28125,-1.40625c0.30469,-0.46094 0.91406,-0.55469 1.375,-0.25c0.40234,0.26953 0.92969,0.43359 1.46875,0.5c0.125,-0.69531 0.1875,-1.43359 0.1875,-2.28125v-0.46875c0.00391,-0.01172 0.02734,-0.01953 0.03125,-0.03125c0.48047,-0.46094 3.11328,-1.47656 5.28125,-1.125c0.34766,0.13672 0.68359,0.125 1,0.125c2.09375,0 3.78125,-1.71875 3.78125,-3.8125c0,-2.10937 -1.68359,-3.6875 -3.90625,-3.6875c-1.42969,0 -2.65234,0.76953 -3.25,2c-0.58984,0.76172 -2.03906,1.34375 -3.15625,1.3125c-0.44531,-0.01562 -1.02344,-0.14453 -1.3125,-0.625c-0.07422,-0.125 -0.19922,-0.23437 -0.3125,-0.3125c-1.65234,-2.77344 -4.27344,-4.88281 -7.28125,-5.8125c-0.75391,-0.30859 -1.19141,-0.74609 -1.375,-1.34375c-0.33594,-1.09766 0.28516,-2.51953 0.625,-3.03125c0.11328,-0.16406 0.23047,-0.34766 0.34375,-0.5c0.60938,-0.82422 1.21875,-1.67578 1.21875,-3c0,-2.54687 -2.14062,-4.6875 -4.6875,-4.6875zM37,6.09375c-2.16797,0 -4,1.83203 -4,4c0,1.10156 -0.19531,1.52344 -0.25,1.625c-0.10156,0.08594 -0.16016,0.19531 -0.21875,0.3125c1.30078,0.76953 2.5,1.71484 3.53125,2.84375c0.14844,-0.07422 0.27344,-0.16797 0.375,-0.3125c0.15625,-0.23047 0.4375,-0.46875 0.5625,-0.46875c2.16797,0 4,-1.83203 4,-4c0,-2.20703 -1.79297,-4 -4,-4zM28,17.5c1.93359,0 3.5,1.56641 3.5,3.5c0,1.93359 -1.56641,3.5 -3.5,3.5c-1.93359,0 -3.5,-1.56641 -3.5,-3.5c0,-1.93359 1.56641,-3.5 3.5,-3.5zM5.59375,18.40625c-2.09766,0 -3.78125,1.6875 -3.78125,3.78125c0,2.09375 1.68359,3.8125 3.78125,3.8125c0.5625,0 1.16406,-0.16016 1.84375,-0.5c0.90234,-0.45312 1.67969,-0.80469 2.5625,-0.625c0.01563,-1.64453 0.30078,-3.27344 0.84375,-4.8125c-0.23828,-0.08984 -0.51172,-0.07031 -0.75,0.03125c0,0 -0.0625,0.03125 -0.28125,0.03125c-0.55469,0 -1.20312,-0.24219 -1.34375,-0.375c-0.73828,-0.89062 -1.73828,-1.34375 -2.875,-1.34375zM20.5,26c1.38281,0 2.5,1.11719 2.5,2.5c0,1.38281 -1.11719,2.5 -2.5,2.5c-1.38281,0 -2.5,-1.11719 -2.5,-2.5c0,-1.38281 1.11719,-2.5 2.5,-2.5zM29.3125,27.90625c0.99219,0 1.78125,0.78906 1.78125,1.78125c0,0.99219 -0.78906,1.8125 -1.78125,1.8125c-0.99219,0 -1.8125,-0.82031 -1.8125,-1.8125c0,-0.99219 0.82031,-1.78125 1.8125,-1.78125zM36.0625,36c-0.17578,0.00781 -0.34766,0.05859 -0.5,0.15625l-3.09375,2c-0.37109,0.23828 -0.59375,0.69922 -0.46875,1.125c0.125,0.42578 0.46484,0.71875 0.90625,0.71875c0.22656,0.11328 0.78125,1.06641 0.78125,2.3125c0,2.10938 1.60938,3.6875 3.71875,3.6875c2.03906,0 3.6875,-1.64844 3.6875,-3.6875c0,-2.17187 -1.5,-3.06641 -2.59375,-3.71875c-1.02344,-0.61328 -1.40625,-0.92187 -1.40625,-1.59375c0,-0.36719 -0.17969,-0.69922 -0.5,-0.875c-0.16016,-0.08984 -0.35547,-0.13281 -0.53125,-0.125zM15.46875,36.5625c-0.29687,0.59375 -0.84375,0.95703 -1.03125,1.03125c-2.02734,0.17188 -3.4375,1.64063 -3.4375,3.59375c0,2.09766 1.71875,3.8125 3.8125,3.8125c2.16797,0 3.78125,-1.64844 3.78125,-3.8125c0,-0.82812 0.67188,-1.73047 1.0625,-2.1875c-1.5,-0.57422 -2.91406,-1.40625 -4.1875,-2.4375z"></path></g></g></svg>