<svg xmlns="http://www.w3.org/2000/svg"  viewBox="0 0 128 128" width="64px" height="64px"><path d="M 69 7 C 62 7 56 12.5 56 19 L 56 52 A 23.93 23.93 0 0 0 69.640625 73.369141 A 48.08 48.08 0 0 0 33 120 A 2 2 0 0 0 37 120 A 44 44 0 0 1 61.169922 80.740234 A 43.05 43.05 0 0 0 59.890625 88.220703 C 54.350625 89.340703 50 94.73 50 101 L 50 116 A 6.59 6.59 0 0 0 56 122 A 2 2 0 0 0 56 118 A 2.92 2.92 0 0 1 54 116 L 54 101 C 54 96.12 57.66 92 62 92 C 66.34 92 70 96.12 70 101 L 70 116 A 2.92 2.92 0 0 1 68 118 A 2 2 0 0 0 68 122 A 6.59 6.59 0 0 0 74 116 L 74 101 C 74 94.66 69.540156 89.209453 63.910156 88.189453 C 64.150156 85.589453 64.789141 81.480313 66.119141 78.820312 L 79 96.369141 A 2 2 0 0 0 82.230469 96.369141 L 95.080078 78.800781 C 98.190078 84.160781 99.460625 92.369531 99.890625 96.019531 A 8.83 8.83 0 1 0 103.89062 95.929688 A 63.86 63.86 0 0 0 100.41016 80.769531 A 44.15 44.15 0 0 1 124 120 A 2 2 0 0 0 128 120 C 128 97.44 112.66961 78.469375 92.099609 73.359375 A 23.73 23.73 0 0 0 105 52 L 105 19 A 11.87 11.87 0 0 0 93 7 L 69 7 z M 69 11 L 93 11 A 7.91 7.91 0 0 1 101 19 L 101 31 L 60 31 L 60 19 C 60 14.74 64.21 11 69 11 z M 80.941406 14 A 2 2 0 0 0 79 16 L 79 19 L 76 19 A 2 2 0 0 0 76 23 L 79 23 L 79 26 A 2 2 0 0 0 83 26 L 83 23 L 86 23 A 2 2 0 0 0 86 19 L 83 19 L 83 16 A 2 2 0 0 0 80.941406 14 z M 25 22 A 9 9 0 0 0 16 31 L 16 54 A 17.35 17.35 0 0 0 24.199219 68.689453 A 33.15 33.15 0 0 0 0 101 A 2 2 0 0 0 4 101 A 29.44 29.44 0 0 1 50 76.509766 A 2.0011622 2.0011622 0 0 0 52.25 73.199219 A 33.2 33.2 0 0 0 42.820312 68.759766 A 17.4 17.4 0 0 0 51 54 L 51 31 A 9 9 0 0 0 42 22 L 25 22 z M 25 26 L 42 26 A 5 5 0 0 1 47 31 L 47 38 L 20 38 L 20 31 A 5 5 0 0 1 25 26 z M 60 35 L 72.890625 35 C 74.410625 36.6 82.89 44.530703 101 45.220703 L 101 52 A 19.79 19.79 0 0 1 81 72 C 69.42 72 60 63 60 52 L 60 35 z M 79.269531 35 L 101 35 L 101 41.220703 C 90.13 40.770703 83.109531 37.5 79.269531 35 z M 20 42 L 47 42 L 47 54 A 13.26 13.26 0 0 1 33.619141 67.419922 A 13.54 13.54 0 0 1 20 54 L 20 42 z M 81 76 A 42.18 42.18 0 0 1 91.240234 77.269531 L 80.589844 91.810547 L 70 77.390625 A 43.7 43.7 0 0 1 81 76 z M 102.00977 99.740234 A 4.84 4.84 0 0 1 102.08008 99.740234 A 4.84 4.84 0 0 1 106.91992 104.57031 A 4.84 4.84 0 1 1 102.00977 99.740234 z"/></svg>