<svg fill="#FA5252" xmlns="http://www.w3.org/2000/svg"  viewBox="0 0 72 72" width="64px" height="64px"><path d="M36,60c-13.255,0-24-10.745-24-24s10.745-24,24-24s24,10.745,24,24S49.255,60,36,60z M55,36c0-10.477-8.523-19-19-19	c-1.104,0-2,0.896-2,2v5c0,1.104,0.896,2,2,2s2-0.896,2-2v-2.867c7.329,0.98,13,7.274,13,14.867c0,8.271-6.729,15-15,15	s-15-6.729-15-15c0-3.877,1.474-7.555,4.148-10.356c0.763-0.799,0.733-2.064-0.065-2.827c-0.798-0.764-2.065-0.735-2.827,0.065	C18.866,26.431,17,31.09,17,36c0,10.477,8.523,19,19,19S55,46.477,55,36z M37.414,37.414c0.781-0.781,0.781-2.047,0-2.828l-7-7	c-0.781-0.781-2.047-0.781-2.828,0c-0.781,0.781-0.781,2.047,0,2.828l7,7C35.367,38.195,36.633,38.195,37.414,37.414z"/></svg>