<svg width="1920" height="700" viewBox="0 0 1920 700" fill="none" xmlns="http://www.w3.org/2000/svg">
<mask id="mask0_99_4640" style="mask-type:alpha" maskUnits="userSpaceOnUse" x="0" y="0" width="1920" height="700">
<rect width="1920" height="700" fill="#F0F0F0"/>
</mask>
<g mask="url(#mask0_99_4640)">
<rect width="1920" height="700" fill="url(#paint0_linear_99_4640)"/>
<path opacity="0.2" d="M637.743 700C638.293 692.923 637.943 685.805 636.702 678.817C630.185 642.148 600.078 607.075 562.798 607.346C541.406 607.488 521.682 618.814 504.226 631.236C486.77 643.658 469.998 657.761 449.761 664.927C429.523 672.093 404.452 670.625 389.933 654.884C378.524 642.547 373.475 622.119 357.131 618.301C336.666 613.514 321.278 639.812 300.356 641.835C285.509 643.259 272.104 631.62 265.757 618.13C259.411 604.639 258.284 589.41 255.446 574.78C252.608 560.15 247.36 544.864 235.48 535.932C218.009 522.74 193.108 527.584 172.728 535.419C152.349 543.254 131.113 553.739 109.564 549.836C79.1294 544.337 61.0741 512.925 51.091 483.693C38.0943 446.011 31.2376 406.489 30.7824 366.635C30.5257 341.549 32.7363 315.835 25.2917 291.888C20.2716 275.676 9.26163 260.277 -5 252V700H637.743Z" fill="#FFC634"/>
</g>
<defs>
<linearGradient id="paint0_linear_99_4640" x1="0" y1="0" x2="1870.5" y2="700" gradientUnits="userSpaceOnUse">
<stop stop-color="#FFF5BE"/>
<stop offset="1" stop-color="#D0F7EA"/>
</linearGradient>
</defs>
</svg>
