<svg xmlns="http://www.w3.org/2000/svg"  viewBox="0 0 26 26" width="52px" height="52px"><path d="M 10 1 C 8.355469 1 7 2.355469 7 4 L 7 6 L 9 6 L 9 4 C 9 3.4375 9.4375 3 10 3 L 16 3 C 16.5625 3 17 3.4375 17 4 L 17 6 L 19 6 L 19 4 C 19 2.355469 17.644531 1 16 1 Z M 3 7 C 1.34375 7 0 8.34375 0 10 L 0 22 C 0 23.65625 1.34375 25 3 25 L 23 25 C 24.65625 25 26 23.65625 26 22 L 26 10 C 26 8.34375 24.65625 7 23 7 Z M 13 9.90625 C 16.367188 9.90625 19.09375 12.628906 19.09375 16 C 19.09375 19.371094 16.367188 22.09375 13 22.09375 C 9.632813 22.09375 6.90625 19.371094 6.90625 16 C 6.90625 12.628906 9.632813 9.90625 13 9.90625 Z M 12 13 L 12 15 L 10 15 L 10 17 L 12 17 L 12 19 L 14 19 L 14 17 L 16 17 L 16 15 L 14 15 L 14 13 Z"/></svg>