<svg xmlns="http://www.w3.org/2000/svg" xmlns:xlink="http://www.w3.org/1999/xlink" viewBox="0,0,256,256" width="64px" height="64px"><g fill="#ff9f0f" fill-rule="nonzero" stroke="none" stroke-width="1" stroke-linecap="butt" stroke-linejoin="miter" stroke-miterlimit="10" stroke-dasharray="" stroke-dashoffset="0" font-family="none" font-weight="none" font-size="none" text-anchor="none" style="mix-blend-mode: normal"><g transform="scale(4,4)"><path d="M11,9c-1.105,0 -2,0.895 -2,2v4l-5,5v4h6v-4l4,-5h3l-3,5v4h6v-4l2,-5h3l-1,5v4h6v-4v-5h4v5v4h6v-4l-1,-5h3l2,5v4h6v-4l-3,-5h3l4,5v4h6v-4l-5,-5v-4c0,-1.105 -0.895,-2 -2,-2zM7,27v29h29v-22h12v10h-4v2c0,0.552 0.448,1 1,1h3v9h9v-28zM16,34h14v15h-14z"></path></g></g></svg>