<svg xmlns="http://www.w3.org/2000/svg"  viewBox="0 0 48 48" width="48px" height="48px"><path d="M 20.5 3 C 18.203405 3 16.305701 4.7666235 16.050781 7 L 12.5 7 C 10.019 7 8 9.019 8 11.5 L 8 38.5 C 8 40.981 10.019 43 12.5 43 L 35.5 43 C 37.981 43 40 40.981 40 38.5 L 40 11.5 C 40 9.019 37.981 7 35.5 7 L 31.949219 7 C 31.694299 4.7666235 29.796595 3 27.5 3 L 20.5 3 z M 20.5 6 L 27.5 6 C 28.346499 6 29 6.6535009 29 7.5 C 29 8.3464991 28.346499 9 27.5 9 L 20.5 9 C 19.653501 9 19 8.3464991 19 7.5 C 19 6.6535009 19.653501 6 20.5 6 z M 28.5 18.035156 C 29.40725 18.035156 30.314109 18.365391 30.974609 19.025391 C 31.635609 19.685391 32 20.564 32 21.5 C 32 22.436 31.635609 23.313609 30.974609 23.974609 L 22.494141 32.457031 C 22.369141 32.583031 22.211062 32.67375 22.039062 32.71875 L 17.253906 33.96875 C 17.168906 33.98975 17.084 34 17 34 C 16.738 34 16.482969 33.897031 16.292969 33.707031 C 16.041969 33.456031 15.94225 33.090094 16.03125 32.746094 L 17.28125 27.962891 C 17.32625 27.790891 17.416969 27.633813 17.542969 27.507812 L 26.025391 19.025391 C 26.685891 18.365391 27.59275 18.035156 28.5 18.035156 z"/></svg>